# xmcd
# 
# Track frame offsets:
#     182
#     19415
#     34925
#     49935
#     78260
#     111632
#     129742
#     144787
#     177995
#     189087
#     211762
#     226802
#     258595
# 
# Disc length: 3763
# 
# Revision: 1
# Processed by: cddbd v1.5.2PL0 Copyright (c) Steve Scherf et al.
# Submitted via: fre:ac v1.0.27
# 
DISCID=b10eb10d
DTITLE=Norman and Nancy Blake - Just Gimme Somethin' I'm Used To
DYEAR=1991
DGENRE=Old-Time
TTITLE0=Waiting For The Boatman
TTITLE1=Georgia Railroad
TTITLE2=Silence Or Tears
TTITLE3=The Poor Little Sailor Boy
TTITLE4=Medley: Green Leaf Fancy, The Fields Of November, Gonna Go Huntin'  For The Buffalo
TTITLE5=When The Work's All Done This Fall
TTITLE6=Brickyard Joe
TTITLE7=Mr. Garfield
TTITLE8=Old Grimes
TTITLE9=Wabash Cannonball
TTITLE10=I'd Rather Be An Old Time Christian
TTITLE11=Little Matty Groves
TTITLE12=Walking Tune
EXTD=
EXTT0=
EXTT1=
EXTT2=
EXTT3=
EXTT4=
EXTT5=
EXTT6=
EXTT7=
EXTT8=
EXTT9=
EXTT10=
EXTT11=
EXTT12=
PLAYORDER=
